<?xml version="1.0" standalone="no"?>
<!DOCTYPE svg PUBLIC "-//W3C//DTD SVG 20010904//EN"
 "http://www.w3.org/TR/2001/REC-SVG-20010904/DTD/svg10.dtd">
<svg version="1.0" xmlns="http://www.w3.org/2000/svg"
 width="25.600000pt" height="26.400000pt" viewBox="0 0 25.600000 26.400000"
 preserveAspectRatio="xMidYMid meet">
<metadata>
Created by potrace 1.13, written by Peter Selinger 2001-2015
</metadata>
<g transform="translate(0.000000,26.400000) scale(0.080000,-0.080000)"
fill="#000000" stroke="none">
<path d="M30 201 c0 -11 48 -51 61 -51 5 0 17 9 26 20 17 19 17 19 30 0 8 -11
23 -20 34 -20 26 0 69 29 69 46 0 11 -23 14 -110 14 -61 0 -110 -4 -110 -9z"/>
<path d="M77 3 c46 -2 120 -2 166 0 45 1 8 3 -83 3 -91 0 -128 -2 -83 -3z"/>
</g>
</svg>
